HIERARCHY
ROOT Hips
{
	OFFSET 0.00 0.00 0.00
	CHANNELS 6 Xposition Yposition Zposition Xrotation Yrotation Zrotation
	JOINT LeftUpLeg
	{
		OFFSET 2.83210 0.00000 0.00000
		CHANNELS 3 Xrotation Yrotation Zrotation
		JOINT LeftLeg
		{
			OFFSET 0.00000 -16.27150 0.00000
			CHANNELS 3 Xrotation Yrotation Zrotation
			JOINT LeftFoot
			{
				OFFSET 0.00000 -14.95190 0.00000
				CHANNELS 3 Xrotation Yrotation Zrotation
				JOINT LeftToeBase
				{
					OFFSET 0.00000 -1.07991 4.03030
					CHANNELS 3 Xrotation Yrotation Zrotation
					End Site
					{
						OFFSET 0.00000 0.00000 2.95275
					}
				}
			}
		}
	}
	JOINT RightUpLeg
	{
		OFFSET -2.83210 0.00000 0.00000
		CHANNELS 3 Xrotation Yrotation Zrotation
		JOINT RightLeg
		{
			OFFSET 0.00000 -16.27150 0.00000
			CHANNELS 3 Xrotation Yrotation Zrotation
			JOINT RightFoot
			{
				OFFSET 0.00000 -14.95190 0.00000
				CHANNELS 3 Xrotation Yrotation Zrotation
				JOINT RightToeBase
				{
					OFFSET 0.00000 -1.07991 4.03030
					CHANNELS 3 Xrotation Yrotation Zrotation
					End Site
					{
						OFFSET 0.00000 0.00000 2.95275
					}
				}
			}
		}
	}
	JOINT Spine
	{
		OFFSET 0.00000 0.03937 0.00000
		CHANNELS 3 Xrotation Yrotation Zrotation
		JOINT Spine1
		{
			OFFSET 0.00000 8.01054 0.00000
			CHANNELS 3 Xrotation Yrotation Zrotation
			JOINT Neck
			{
				OFFSET 0.00000 8.21888 0.00000
				CHANNELS 3 Xrotation Yrotation Zrotation
				JOINT Head
				{
					OFFSET 0.00000 3.25664 0.00000
					CHANNELS 3 Xrotation Yrotation Zrotation
					End Site
					{
						OFFSET 0.00000 4.52755 0.00000
					}
				}
			}
			JOINT LeftShoulder
			{
				OFFSET 0.00000 8.21888 0.00000
				CHANNELS 3 Xrotation Yrotation Zrotation
				JOINT LeftArm
				{
					OFFSET 6.52904 -0.00002 0.00000
					CHANNELS 3 Xrotation Yrotation Zrotation
					JOINT LeftForeArm
					{
						OFFSET 10.44840 -0.00004 0.00000
						CHANNELS 3 Xrotation Yrotation Zrotation
						JOINT LeftHand
						{
							OFFSET 8.94727 -0.00003 0.00000
							CHANNELS 3 Xrotation Yrotation Zrotation
							JOINT LeftHandThumb
							{
								OFFSET 0.00000 0.00000 0.00000
								CHANNELS 3 Xrotation Yrotation Zrotation
								End Site
								{
									OFFSET 0.00000 0.00000 3.93700
								}
							}
							JOINT L_Wrist_End
							{
								OFFSET 3.93700 -0.00001 0.00000
								CHANNELS 3 Xrotation Yrotation Zrotation
							}
						}
					}
				}
			}
			JOINT RightShoulder
			{
				OFFSET 0.00000 8.21888 0.00000
				CHANNELS 3 Xrotation Yrotation Zrotation
				JOINT RightArm
				{
					OFFSET -6.52904 -0.00002 0.00000
					CHANNELS 3 Xrotation Yrotation Zrotation
					JOINT RightForeArm
					{
						OFFSET -10.44840 -0.00004 0.00000
						CHANNELS 3 Xrotation Yrotation Zrotation
						JOINT RightHand
						{
							OFFSET -8.94727 -0.00003 0.00000
							CHANNELS 3 Xrotation Yrotation Zrotation
							JOINT RightHandThumb
							{
								OFFSET 0.00000 0.00000 0.00000
								CHANNELS 3 Xrotation Yrotation Zrotation
								End Site
								{
									OFFSET 0.00000 0.00000 3.93700
								}
							}
							JOINT R_Wrist_End
							{
								OFFSET -5.39369 -0.00002 0.00000
								CHANNELS 3 Xrotation Yrotation Zrotation
							}
						}
					}
				}
			}
		}
	}
}
MOTION
Frames: 8
Frame Time: 0.033332
 -9.6455 32.7821 -2.4188 65.6551 83.7880 -65.1320 -2.1845 17.2135 6.9202 29.9615 -0.0000 0.0000 -3.6814 12.3934 -10.8446 3.6401 0.0000 0.0000 -13.6777 -7.9513 6.3973 8.1593 -0.0000 0.0000 -3.5450 -29.9806 10.0025 19.8799 0.0000 0.0000 -9.8320 1.3308 -7.0536 13.2797 -6.9597 11.6635 -25.4992 18.4653 1.9031 -0.8520 -37.0523 -13.8739 11.2331 13.4911 2.4089 -32.9069 -43.9382 -42.8180 -0.0002 -47.0288 -0.0001 10.8722 -9.9735 -4.4079 -0.0000 -0.0000 0.0000 -0.0000 -0.0000 0.0000 17.2792 -20.5551 -1.4395 -1.6989 26.0759 44.7185 -0.0000 12.8571 0.0000 13.5045 -0.6816 -19.3015 -0.0000 0.0000 -0.0000 -0.0000 0.0000 -0.0000
 -10.4816 32.7464 -2.8570 75.2280 82.3297 -74.0190 1.1775 12.6989 3.4286 19.1363 -0.0000 -0.0000 -6.5124 15.0113 -11.2038 7.4052 -0.0000 0.0000 -17.4509 -7.8375 4.8714 8.6650 -0.0000 0.0000 -2.2268 -30.3480 10.3250 19.9020 -0.0000 0.0000 -9.8842 0.4980 -7.7790 13.2783 -7.4480 12.8137 -26.4114 19.2503 2.3253 -2.4978 -36.7649 -15.4096 10.3253 12.5997 2.6167 -37.5730 -43.5952 -45.1204 -0.0002 -48.3412 -0.0001 12.3358 -9.8489 -5.1553 -0.0000 0.0000 -0.0000 -0.0000 0.0000 -0.0000 17.1723 -20.9391 -1.3950 -0.9608 25.6368 43.5425 -0.0000 12.9553 0.0000 14.5094 -0.6698 -18.9300 -0.0000 0.0000 -0.0000 -0.0000 0.0000 -0.0000
 -11.4486 32.7199 -3.3637 80.4131 80.7517 -77.9589 1.8574 9.1632 -0.2763 12.2260 0.0000 -0.0000 -8.0588 20.1395 -9.8685 11.9805 0.0000 0.0000 -21.0117 -8.0551 2.6560 8.3546 -0.0000 0.0000 0.0193 -29.6745 11.6974 19.5800 -0.0000 0.0000 -9.7855 0.0545 -8.5689 13.5176 -7.6456 13.3836 -27.0078 19.6683 2.3858 -4.4955 -36.5487 -16.4802 9.3660 11.4972 3.2274 -42.2342 -43.3679 -47.8691 -0.0002 -48.9885 -0.0001 13.1892 -10.5211 -5.7562 -0.0000 0.0000 -0.0000 -0.0000 0.0000 -0.0000 17.0402 -21.3566 -1.2370 -0.8012 25.3745 42.6309 -0.0001 13.4109 0.0000 15.4697 -0.6780 -19.1905 -0.0000 0.0000 -0.0000 -0.0000 0.0000 -0.0000
 -12.4959 32.6596 -3.7563 80.7168 78.9491 -77.7056 0.1145 12.8130 -1.9978 9.2771 0.0000 0.0000 -9.6078 19.1972 -8.5698 14.8623 0.0000 0.0000 -23.8046 -7.3045 1.6465 6.2893 0.0000 0.0000 3.4074 -29.5015 13.5144 19.5000 0.0000 0.0000 -9.3529 -0.1239 -8.7468 13.0171 -7.7861 13.3146 -26.4831 19.7396 1.9308 -6.5355 -36.4659 -16.0830 8.7084 10.8685 4.2930 -46.2728 -43.4948 -50.5717 -0.0002 -48.4749 -0.0001 13.6171 -11.5438 -5.7322 -0.0000 0.0000 -0.0000 -0.0000 0.0000 -0.0000 16.9448 -21.4665 -1.1731 -0.8714 25.5969 42.3003 -0.0001 14.0995 0.0000 16.2408 -0.7648 -19.8656 -0.0000 0.0000 -0.0000 -0.0000 0.0000 -0.0000
 -13.5283 32.5715 -4.0463 80.8438 77.5286 -77.7262 -2.7563 14.3830 -2.6325 9.1922 -0.0000 0.0000 -11.7700 18.8495 -8.0109 16.7247 0.0000 0.0000 -25.0269 -6.4331 1.3523 2.1379 -0.0000 0.0000 7.5936 -29.4087 16.0441 20.1640 -0.0000 0.0000 -8.8231 -0.3490 -8.8059 12.6707 -7.9762 13.1951 -26.1334 19.4016 1.2373 -7.3720 -36.2715 -14.6193 8.2117 10.3128 5.0981 -49.1608 -43.7791 -52.4158 -0.0002 -46.9846 -0.0001 13.8545 -12.6334 -6.1900 -0.0000 0.0000 -0.0000 -0.0000 0.0000 -0.0000 16.6569 -21.4356 -1.3389 -1.8331 25.6052 42.6544 -0.0001 15.0573 0.0000 16.4611 -0.5595 -20.9483 -0.0000 0.0000 -0.0000 -0.0000 0.0000 -0.0000
 -14.4831 32.4712 -4.3591 82.9390 76.5445 -78.8745 -5.7666 12.6811 -4.0895 10.4149 -0.0000 0.0000 -13.6076 20.7540 -7.5631 17.7721 -0.0000 0.0000 -25.3197 -6.1509 0.1601 -2.7633 0.0000 0.0000 11.3367 -28.2595 17.3112 20.4081 -0.0000 0.0000 -8.6390 -0.5516 -9.1520 12.7948 -8.3662 12.2748 -25.1031 19.1329 0.6372 -8.9676 -36.3713 -13.5951 8.1283 9.3353 5.5768 -51.0683 -43.7392 -53.3302 -0.0002 -45.8065 -0.0001 13.8600 -8.9165 -8.1407 -0.0000 0.0000 -0.0000 -0.0000 0.0000 -0.0000 16.3110 -21.4761 -1.1895 -2.7854 26.2814 42.6168 -0.0001 15.5883 0.0000 16.7684 -0.4197 -21.9936 -0.0000 0.0000 -0.0000 -0.0000 0.0000 -0.0000
 -15.4022 32.4613 -4.6182 85.5066 75.5813 -80.1172 -9.8949 12.1320 -5.4579 13.9252 0.0000 0.0000 -14.2452 21.4647 -7.5263 18.0304 -0.0000 0.0000 -26.3352 -6.5323 -1.3701 -4.4434 0.0000 -0.0000 12.9050 -25.1628 17.3992 19.7583 0.0000 0.0000 -8.4461 -0.5337 -9.2161 12.5981 -8.8778 10.1814 -24.2586 18.8126 0.3939 -10.4255 -36.9046 -12.9475 8.1963 8.3128 6.4516 -51.8855 -43.4324 -53.9701 -0.0002 -43.1361 -0.0001 15.8428 -5.6322 -9.3691 -0.0000 -0.0000 0.0000 -0.0000 -0.0000 0.0000 16.3924 -21.5077 -0.2864 -4.5763 26.5378 42.9323 -0.0001 16.1174 0.0000 17.4201 -0.3302 -22.8527 -0.0000 0.0000 -0.0000 -0.0000 0.0000 -0.0000
 -16.2321 32.5247 -4.7189 81.7777 74.8903 -76.6631 -14.1074 12.7923 -4.8078 18.2060 -0.0000 0.0000 -14.2736 22.1807 -7.1349 17.6353 -0.0000 0.0000 -26.6530 -5.5473 -0.7812 -3.9605 0.0000 0.0000 12.9634 -23.0143 17.7271 19.7714 0.0000 0.0000 -7.8634 -0.2403 -8.8749 12.4042 -8.6730 9.5967 -24.7413 18.6762 0.2306 -9.9022 -36.7214 -12.3026 7.8387 7.8794 7.3444 -50.6554 -41.6163 -54.2712 -0.0002 -39.5358 -0.0001 18.0079 -6.3812 -10.9227 -0.0000 -0.0000 0.0000 -0.0000 -0.0000 0.0000 16.1510 -21.2621 -0.4454 -6.2220 27.0155 43.3218 -0.0001 17.0780 0.0000 17.6198 -0.0763 -23.0096 -0.0000 0.0000 -0.0000 -0.0000 0.0000 -0.0000
